#!OML:ASF H:\Dans Jumps\Project 1\Capture day 1\Session 1\subject.ASF
:FULLY-SPECIFIED
:DEGREES
456
root -0.0188943 17.5309 0.613913 8.51911 -1.95916 -0.314606
lowerback 3.54147 -0.900572 -0.908065
upperback 2.67056 -1.22834 1.62202
thorax 0.809863 -0.641097 2.20649
lowerneck -14.0812 0.757464 -1.11884
upperneck 28.8931 1.3868 -0.0863452
head 11.7693 0.478345 0.354031
rclavicle 1.04362e-014 -9.93923e-015
rhumerus -37.6352 -25.9876 -68.5982
rradius 19.6053
rwrist 43.4177
rhand -21.1034 -25.3224
rfingers 7.12502
rthumb 5.27449 -55.2368
lclavicle 1.04362e-014 -9.93923e-015
lhumerus -41.6242 -6.68742 90.4604
lradius 13.6634
lwrist 0.390472
lhand -18.1716 0.473399
lfingers 7.12502
lthumb 8.10477 30.298
rfemur -26.2938 0.791931 17.1568
rtibia 30.5379
rfoot -10.904 -3.08546
rtoes 15.7757
lfemur -23.9009 7.19722 -18.0798
ltibia 25.5414
lfoot -7.65868 5.74384
ltoes -2.56513
457
root -0.0172641 17.5372 0.616893 8.67483 -2.00946 -0.330327
lowerback 3.63146 -0.852805 -0.883953
upperback 2.69292 -1.16436 1.62586
thorax 0.779257 -0.608716 2.1966
lowerneck -14.1546 0.721757 -1.12085
upperneck 28.7284 1.34965 -0.12969
head 11.7206 0.457543 0.332849
rclavicle 2.98177e-015 -2.38542e-015
rhumerus -38.0759 -26.9215 -67.8192
rradius 19.2226
rwrist 44.4042
rhand -20.9948 -25.2185
rfingers 7.12502
rthumb 5.3794 -55.1302
lclavicle 2.98177e-015 -2.38542e-015
lhumerus -41.3605 -6.10846 89.8988
lradius 13.288
lwrist -0.858377
lhand -18.2674 0.334627
lfingers 7.12502
lthumb 8.01226 30.1628
rfemur -26.3541 0.76865 17.1566
rtibia 30.3192
rfoot -10.7829 -2.91804
rtoes 15.8872
lfemur -23.9647 7.12777 -18.0715
ltibia 25.3633
lfoot -7.49008 5.79824
ltoes -2.30979
458
root -0.0163004 17.5431 0.621651 8.82141 -2.05832 -0.355577
lowerback 3.69425 -0.801338 -0.856439
upperback 2.71094 -1.0953 1.63421
thorax 0.759223 -0.573845 2.18873
lowerneck -14.2113 0.685296 -1.12968
upperneck 28.5922 1.31009 -0.162526
head 11.6795 0.436048 0.316479
rclavicle -1.46107e-014 -5.56597e-015
rhumerus -38.5139 -27.8065 -67.0672
rradius 18.8736
rwrist 45.281
rhand -20.8094 -25.147
rfingers 7.12502
rthumb 5.55838 -55.0541
lclavicle -1.46107e-014 -5.56597e-015
lhumerus -41.0317 -5.37795 89.2274
lradius 12.905
lwrist -2.27227
lhand -18.2827 0.258544
lfingers 7.12502
lthumb 7.99747 30.0872
rfemur -26.4035 0.7299 17.1716
rtibia 30.1084
rfoot -10.6678 -2.73293
rtoes 16.0332
lfemur -24.0206 7.09266 -18.0518
ltibia 25.2027
lfoot -7.35462 5.84047
ltoes -2.14873
459
root -0.0162525 17.5491 0.628121 8.96244 -2.09918 -0.382967
lowerback 3.72667 -0.748861 -0.836127
upperback 2.72303 -1.02502 1.64508
thorax 0.750237 -0.538534 2.18692
lowerneck -14.2569 0.647279 -1.14729
upperneck 28.4885 1.26497 -0.175921
head 11.6488 0.413313 0.30814
rclavicle 2.48481e-015 4.37326e-015
rhumerus -38.9457 -28.6329 -66.351
rradius 18.5495
rwrist 46.0733
rhand -20.5975 -25.088
rfingers 7.12502
rthumb 5.76301 -54.9897
lclavicle 2.48481e-015 4.37326e-015
lhumerus -40.6622 -4.52559 88.4738
lradius 12.5402
lwrist -3.75632
lhand -18.3162 0.191288
lfingers 7.12502
lthumb 7.96514 30.0212
rfemur -26.4381 0.675922 17.195
rtibia 29.8951
rfoot -10.5615 -2.54288
rtoes 16.2069
lfemur -24.0685 7.08477 -18.0291
ltibia 25.0475
lfoot -7.23991 5.86631
ltoes -2.05089
460
root -0.0171329 17.5556 0.636428 9.09803 -2.12239 -0.414863
lowerback 3.72556 -0.70063 -0.821099
upperback 2.73052 -0.960514 1.66027
thorax 0.755696 -0.506297 2.19217
lowerneck -14.2906 0.610918 -1.16731
upperneck 28.4139 1.21852 -0.174558
head 11.6267 0.391345 0.305541
rclavicle 4.67144e-015 -1.19271e-015
rhumerus -39.3675 -29.4083 -65.668
rradius 18.2344
rwrist 46.8622
rhand -20.4298 -25.0111
rfingers 7.12502
rthumb 5.92489 -54.9082
lclavicle 4.67144e-015 -1.19271e-015
lhumerus -40.2687 -3.59829 87.6827
lradius 12.2131
lwrist -5.17883
lhand -18.3864 0.151744
lfingers 7.12502
lthumb 7.89745 29.9842
rfemur -26.4488 0.60233 17.2305
rtibia 29.6699
rfoot -10.4658 -2.35545
rtoes 16.4042
lfemur -24.1039 7.09136 -18.0003
ltibia 24.887
lfoot -7.137 5.875
ltoes -1.99669
461
root -0.0188291 17.5628 0.646421 9.22825 -2.12103 -0.452745
lowerback 3.69429 -0.659781 -0.807597
upperback 2.73389 -0.905865 1.67996
thorax 0.774306 -0.47912 2.20281
lowerneck -14.32 0.575019 -1.1889
upperneck 28.3681 1.1689 -0.158345
head 11.615 0.369398 0.308336
rclavicle -8.24956e-015 6.75868e-015
rhumerus -39.7623 -30.0997 -65.0504
rradius 17.9377
rwrist 47.6131
rhand -20.305 -24.9533
rfingers 7.12502
rthumb 6.04536 -54.8471
lclavicle -8.24956e-015 6.75868e-015
lhumerus -39.8676 -2.63627 86.8909
lradius 11.9421
lwrist -6.43094
lhand -18.5791 0.0918706
lfingers 7.12502
lthumb 7.71144 29.9313
rfemur -26.4301 0.505182 17.2799
rtibia 29.4241
rfoot -10.3757 -2.17561
rtoes 16.6185
lfemur -24.124 7.09985 -17.9633
ltibia 24.715
lfoot -7.04022 5.86844
ltoes -1.96186
462
root -0.0212001 17.5708 0.657816 9.3496 -2.09473 -0.496566
lowerback 3.64256 -0.626607 -0.793927
upperback 2.7328 -0.861422 1.70328
thorax 0.80027 -0.457096 2.21717
lowerneck -14.342 0.540775 -1.20509
upperneck 28.3461 1.11751 -0.133042
head 11.6109 0.348183 0.313354
rclavicle 6.06293e-015 -1.27222e-014
rhumerus -40.1281 -30.7145 -64.4968
rradius 17.6531
rwrist 48.3611
rhand -20.243 -24.8979
rfingers 7.12502
rthumb 6.10523 -54.79
lclavicle 6.06293e-015 -1.27222e-014
lhumerus -39.4724 -1.69319 86.141
lradius 11.7425
lwrist -7.40766
lhand -18.9031 0.0179277
lfingers 7.12502
lthumb 7.39869 29.8686
rfemur -26.3754 0.387675 17.3422
rtibia 29.1504
rfoot -10.2874 -2.00878
rtoes 16.8347
lfemur -24.1252 7.10044 -17.9171
ltibia 24.5299
lfoot -6.94924 5.85411
ltoes -1.95182
463
root -0.0240666 17.5796 0.670534 9.45866 -2.0458 -0.558482
lowerback 3.57616 -0.600536 -0.767374
upperback 2.72854 -0.826136 1.73432
thorax 0.831491 -0.43955 2.23238
lowerneck -14.3586 0.506457 -1.22465
upperneck 28.3442 1.06258 -0.0929997
head 11.6135 0.326701 0.323938
rclavicle -2.25621e-014 2.0276e-014
rhumerus -40.4548 -31.2315 -64.0257
rradius 17.392
rwrist 49.0838
rhand -20.2302 -24.8724
rfingers 7.12502
rthumb 6.1176 -54.7641
lclavicle -2.25621e-014 2.0276e-014
lhumerus -39.0928 -0.828745 85.4806
lradius 11.6231
lwrist -8.01492
lhand -19.3257 -0.0603989
lfingers 7.12502
lthumb 6.99077 29.8042
rfemur -26.2802 0.256834 17.4294
rtibia 28.8446
rfoot -10.1982 -1.85729
rtoes 17.0383
lfemur -24.1032 7.08858 -17.8471
ltibia 24.3333
lfoot -6.86842 5.84043
ltoes -1.96301
464
root -0.0272735 17.589 0.684264 9.55159 -1.97941 -0.644381
lowerback 3.50468 -0.579225 -0.71975
upperback 2.72225 -0.796729 1.77289
thorax 0.863538 -0.424694 2.24366
lowerneck -14.3774 0.471228 -1.24809
upperneck 28.3634 1.00304 -0.0377892
head 11.6246 0.304469 0.340232
rclavicle -1.49089e-015 1.43125e-014
rhumerus -40.7332 -31.6486 -63.6498
rradius 17.1594
rwrist 49.7642
rhand -20.2482 -24.889
rfingers 7.12502
rthumb 6.10018 -54.7812
lclavicle -1.49089e-015 1.43125e-014
lhumerus -38.731 -0.111884 84.9528
lradius 11.5877
lwrist -8.18086
lhand -19.8397 -0.153813
lfingers 7.12502
lthumb 6.49455 29.7266
rfemur -26.1422 0.123456 17.5459
rtibia 28.5062
rfoot -10.1054 -1.72588
rtoes 17.2079
lfemur -24.0539 7.06013 -17.7454
ltibia 24.1261
lfoot -6.79703 5.83742
ltoes -1.99789
